<?xml version="1.0" encoding="utf-8"?>
<!-- Generator: Adobe Illustrator 22.1.0, SVG Export Plug-In . SVG Version: 6.00 Build 0)  -->
<svg version="1.1" id="Layer_1" xmlns="http://www.w3.org/2000/svg" xmlns:xlink="http://www.w3.org/1999/xlink" x="0px" y="0px"
	 viewBox="0 0 500 500" width="32" height="32" style="enable-background:new 0 0 500 500;" preserveAspectRatio="xMidYMid meet" xml:space="preserve">
<style type="text/css">
	.st0{fill:none;}
	.st1{fill:#FFFFFF;}
</style>
<rect class="st0" width="500" height="500"/>
<path class="st1" d="M250,125c20.6,0,28,9.3,31.8,16.4c5.2,9.6,5.7,20.1,5.7,21.3c0,2.4-1,37.7-18.2,72c-3.9,7.7-3.5,17,1.1,24.3
	c4.6,7.4,12.6,11.9,21.3,11.9c13.7,0,25,2.8,33.7,8.4c6.6,4.3,12.1,10.4,16.2,18.2c5.6,10.5,7.4,21.6,8.1,27.5H150.3
	c0.6-5.9,2.5-17,8.1-27.5c4.1-7.8,9.6-13.9,16.2-18.2c8.7-5.6,20-8.4,33.7-8.4c8.7,0,16.7-4.5,21.3-11.9c4.6-7.4,5-16.6,1.1-24.3
	c-17.4-34.8-18.2-70.5-18.2-72.2c0-0.5,0.4-10.5,5.2-20C223.7,130.4,233.7,125,250,125 M250,100c-62.5,0-62.5,62.5-62.5,62.5
	s0,41.7,20.8,83.3c-83.3,0-83.3,83.3-83.3,83.3V350h250v-20.8c0,0,0-83.3-83.3-83.3c20.8-41.7,20.8-83.3,20.8-83.3
	S312.5,100,250,100L250,100z"/>
<path class="st1" d="M325,400h-25V250c0-1.3,0.2-12.7,6-24.3c8.3-16.5,23.9-25.7,44-25.7s35.7,9.1,44,25.7c5.8,11.7,6,23.1,6,24.3
	h-25l0,0c0,0-0.2-7.1-3.7-13.7c-4.1-7.7-10.9-11.3-21.3-11.3c-10.7,0-17.6,3.8-21.6,11.8c-3.2,6.3-3.4,13.1-3.4,13.2V400z"/>
<g>
	<rect x="350" y="100" class="st1" width="25" height="75"/>
</g>
<g>
	<rect x="325" y="125" class="st1" width="75" height="25"/>
</g>
</svg>
