<?xml version="1.0" encoding="utf-8"?>
<!-- Generator: Adobe Illustrator 15.1.0, SVG Export Plug-In . SVG Version: 6.00 Build 0)  -->
<!DOCTYPE svg PUBLIC "-//W3C//DTD SVG 1.1//EN" "http://www.w3.org/Graphics/SVG/1.1/DTD/svg11.dtd">
<svg version="1.1" id="Layer_2" xmlns="http://www.w3.org/2000/svg" xmlns:xlink="http://www.w3.org/1999/xlink" x="0px" y="0px"
	 width="1843.49px" height="512.085px" viewBox="0 0 1843.49 512.085" enable-background="new 0 0 1843.49 512.085" preserveAspectRatio="xMidYMid meet"
	 xml:space="preserve">
<rect x="137.543" y="137.542" display="none" fill="#FFFFFF" width="237" height="237"/>
<path fill="#FFFFFF" d="M128.043,34.34C5.6,105.033-36.352,261.6,34.34,384.042c70.692,122.443,227.26,164.396,349.703,93.703
	s164.395-227.26,93.702-349.703C407.053,5.6,250.486-36.352,128.043,34.34z M352.043,422.32
	c-44.414,25.643-96.156,32.454-145.693,19.181c-49.538-13.274-90.941-45.044-116.583-89.458c-9.361-16.213-16.2-33.405-20.48-51.106
	l234.418-135.342c15.305-8.836,20.55-28.407,11.713-43.713s-28.408-20.549-43.713-11.713L65.941,228.966
	c1.093-7.567,2.635-15.117,4.644-22.617c13.274-49.537,45.044-90.941,89.458-116.583s96.155-32.454,145.693-19.181
	c49.537,13.274,90.94,45.044,116.583,89.458c9.36,16.213,16.2,33.405,20.481,51.107L236.095,330.491l-3.25-5.629l-8-13.856
	l46.766-27c15.305-8.836,20.549-28.408,11.712-43.713c-8.836-15.305-28.407-20.549-43.712-11.712l-46.765,27l-27.713,16l-27.713,16
	l21.583,37.384l18.417,31.898l19.25,33.342c8.837,15.307,28.407,20.55,43.713,11.713L446.145,283.12
	c-1.093,7.567-2.635,15.117-4.644,22.616C428.227,355.274,396.457,396.677,352.043,422.32z"/>
<path fill="#FFFFFF" d="M743.971,348.531H626.403v-81.83h98.393h0.58c6.736-0.154,12.156-5.608,12.249-12.359v-0.349
	c-0.092-6.646-5.349-12.03-11.939-12.343h-1.199h-98.083v-76.82h114.516c7.378,0,13.36-5.981,13.36-13.36
	c0-7.378-5.982-13.36-13.36-13.36H609.703c-7.379,0-13.36,5.981-13.36,13.36v210.42c0,7.379,5.981,13.36,13.36,13.36h134.268
	c7.378,0,13.36-5.981,13.36-13.36S751.349,348.531,743.971,348.531z"/>
<path fill="#FFFFFF" d="M1002.025,138.11c-6.939,0-13.038,3.57-16.582,8.967l-1.276,2.28L904.29,292.084l-79.601-142.785
	l-0.996-1.787c-3.541-5.641-9.799-9.402-16.95-9.402c-11.058,0-20.021,8.964-20.021,20.021V360.1v0.426
	c0.106,7.629,5.888,13.881,13.317,14.725h3.427c7.416-0.843,13.19-7.074,13.316-14.687v-0.502V191.884l73.888,131.252l1.387,2.463
	c2.72,3.909,7.239,6.474,12.363,6.474c5.44,0,10.192-2.895,12.839-7.218l0.593-1.058l73.946-131.913V360.22
	c0,8.301,6.729,15.03,15.03,15.03s15.03-6.729,15.03-15.03V157.944C1021.858,146.99,1012.979,138.11,1002.025,138.11z"/>
<path fill="#FFFFFF" d="M1223.759,275.885c-7.907-10.798-18.652-18.202-32.231-22.211c10.907-4.895,19.314-12.358,25.217-22.378
	c5.897-10.02,8.852-20.927,8.852-32.732c0-7.348-1.284-14.639-3.842-21.877c-2.562-7.233-6.179-13.694-10.854-19.372
	c-4.676-5.678-10.354-10.296-17.034-13.861c-6.68-3.559-14.143-5.344-22.378-5.344h-104.542c-7.379,0-13.36,5.981-13.36,13.36
	v210.42c0,7.379,5.981,13.36,13.36,13.36h99.198c9.571,0,18.537-1.445,26.887-4.342c8.35-2.892,15.698-7.015,22.044-12.358
	s11.356-11.799,15.03-19.371c3.674-7.568,5.511-15.918,5.511-25.051C1235.615,299.433,1231.659,286.689,1223.759,275.885z
	 M1202.215,324.148c-2.004,4.9-4.79,9.186-8.35,12.859c-3.564,3.674-7.682,6.628-12.358,8.852c-4.676,2.229-9.801,3.34-15.363,3.34
	h-82.498v-81.418v-0.078V243.32v-79.158h77.488c4.895,0,9.519,1.002,13.86,3.006s8.017,4.791,11.022,8.35
	c3.006,3.564,5.396,7.797,7.181,12.692c1.779,4.9,2.672,10.135,2.672,15.698c0,5.344-0.949,10.411-2.839,15.197
	c-1.895,4.791-4.457,8.966-7.682,12.525c-3.23,3.564-7.071,6.403-11.523,8.517c-4.457,2.119-9.352,3.173-14.696,3.173h-38.081
	h-1.471c-6.264,0.374-11.244,5.446-11.472,11.746v0.89c0.227,6.296,5.198,11.363,11.452,11.746h1.51h47.414
	c5.344,0,10.239,1.117,14.696,3.34c4.451,2.229,8.292,5.234,11.522,9.018c3.226,3.789,5.788,8.184,7.682,13.193
	c1.89,5.01,2.84,10.188,2.84,15.531S1204.22,319.253,1202.215,324.148z"/>
<path fill="#FFFFFF" d="M1406.954,348.531h-117.567v-81.83h98.393h0.58c6.736-0.154,12.156-5.608,12.249-12.359v-0.349
	c-0.092-6.646-5.349-12.03-11.939-12.343h-1.199h-98.083v-76.82h114.516c7.378,0,13.36-5.981,13.36-13.36
	c0-7.378-5.982-13.36-13.36-13.36h-131.216c-7.379,0-13.36,5.981-13.36,13.36v210.42c0,7.379,5.981,13.36,13.36,13.36h134.268
	c7.378,0,13.36-5.981,13.36-13.36S1414.332,348.531,1406.954,348.531z"/>
<path fill="#FFFFFF" d="M1602.844,258.685c4.342-6.232,7.682-13.193,10.02-20.875c2.339-7.682,3.508-15.641,3.508-23.881
	c0-9.352-1.785-18.537-5.345-27.555c-3.564-9.018-8.517-17.144-14.862-24.382c-6.347-7.233-13.919-13.026-22.712-17.368
	c-8.799-4.342-18.428-6.513-28.892-6.513h-88.176c-7.379,0-13.36,5.981-13.36,13.36v207.933v1.663
	c0.419,7.658,6.545,13.774,14.204,14.185h1.625c7.839-0.419,14.08-6.816,14.231-14.727v-0.58v-69.863v-26.72v-98.53h69.806
	c5.788,0,11.299,1.284,16.533,3.841c5.229,2.563,9.796,6.127,13.694,10.688c3.893,4.566,7.014,9.801,9.352,15.698
	c2.338,5.902,3.507,12.191,3.507,18.871c0,6.46-1.002,12.692-3.006,18.704c-2.004,6.012-4.791,11.304-8.35,15.865
	c-3.564,4.566-7.85,8.183-12.859,10.855c-5.01,2.672-10.636,4.008-16.867,4.008h-31.73c-7.378,0-13.359,5.981-13.359,13.359
	c0,7.379,5.981,13.36,13.359,13.36h22.713l50.085,78.838l0.022,0.036c2.378,3.515,6.266,5.916,10.729,6.296h2.476
	c7.393-0.629,13.199-6.819,13.199-14.375c0-2.399-0.594-4.657-1.63-6.648l-1.255-1.985l-42.899-67.84
	c7.567-2.004,14.414-5.229,20.541-9.686C1593.268,270.265,1598.502,264.921,1602.844,258.685z"/>
<path fill="#FFFFFF" d="M1830.313,257.015h-0.367h-51.558h-0.059c-6.18,0.016-11.191,4.963-11.326,11.115v0.502
	c0.132,6.012,4.924,10.862,10.911,11.095h0.889h39.302v32.732c-20.708,24.94-43.979,37.408-69.806,37.408
	c-11.805,0-22.712-2.447-32.732-7.348c-10.02-4.896-18.703-11.633-26.052-20.207c-7.348-8.57-13.141-18.48-17.368-29.727
	c-4.232-11.241-6.346-23.213-6.346-35.905c0-12.024,1.89-23.657,5.678-34.903c3.784-11.241,9.128-21.151,16.032-29.726
	c6.899-8.569,15.249-15.473,25.05-20.708c9.796-5.229,20.708-7.849,32.732-7.849c14.696,0,27.941,3.34,39.746,10.02
	c8.011,4.535,14.939,10.717,20.796,18.535c0.132,0.176,0.264,0.351,0.395,0.528c2.577,3.463,6.689,5.716,11.338,5.716
	c2.854,0,5.504-0.852,7.727-2.306l0.484-0.338c3.586-2.565,5.931-6.753,5.931-11.498c0-2.835-0.843-5.47-2.279-7.683
	c-0.201-0.287-0.404-0.571-0.608-0.855c-6.981-9.73-15.723-18.006-26.247-24.813c-14.812-9.571-33.683-14.362-56.613-14.362
	c-15.813,0-30.509,3.23-44.088,9.686c-13.585,6.461-25.274,15.197-35.07,26.219c-9.801,11.022-17.482,23.714-23.046,38.076
	c-5.568,14.362-8.35,29.559-8.35,45.591c0,15.364,2.839,30.284,8.517,44.756c5.678,14.477,13.412,27.336,23.213,38.576
	c9.796,11.246,21.429,20.322,34.903,27.221c13.47,6.905,28.108,10.354,43.921,10.354c27.163,0,51.212-11.241,72.144-33.733v19.371
	c0,7.01,5.683,12.692,12.692,12.692s12.692-5.683,12.692-12.692v-92.192C1843.49,263.048,1837.605,257.114,1830.313,257.015z"/>
</svg>
