<?xml version="1.0" encoding="utf-8"?>
<!DOCTYPE svg PUBLIC "-//W3C//DTD SVG 1.1//EN" "http://www.w3.org/Graphics/SVG/1.1/DTD/svg11.dtd">
<svg version="1.1" id="Layer_1" xmlns="http://www.w3.org/2000/svg" xmlns:xlink="http://www.w3.org/1999/xlink" x="0px" y="0px"
	 width="26px" height="21px" viewBox="0 0 26 21" enable-background="new 0 0 26 21" preserveAspectRatio="xMidYMid meet" xml:space="preserve">
<g id="XMLID_2_">
	<path id="XMLID_7_" fill="#E5E6E6" d="M13,0l11.25,4.5V6h-1.5c0,0.203-0.08,0.379-0.24,0.527S22.16,6.75,21.941,6.75H4.059
		C3.84,6.75,3.65,6.676,3.49,6.527S3.25,6.203,3.25,6h-1.5V4.5L13,0z M4.75,7.5h3v9h1.5v-9h3v9h1.5v-9h3v9h1.5v-9h3v9h0.691
		c0.219,0,0.408,0.074,0.568,0.223s0.24,0.324,0.24,0.527V18H3.25v-0.75c0-0.203,0.08-0.379,0.24-0.527S3.84,16.5,4.059,16.5H4.75
		V7.5z M23.441,18.75c0.219,0,0.408,0.074,0.568,0.223s0.24,0.324,0.24,0.527V21H1.75v-1.5c0-0.203,0.08-0.379,0.24-0.527
		s0.35-0.223,0.568-0.223H23.441z"/>
</g>
</svg>
