<?xml version="1.0" encoding="utf-8"?>
<!-- Generator: Adobe Illustrator 22.1.0, SVG Export Plug-In . SVG Version: 6.00 Build 0)  -->
<svg version="1.1" id="Layer_1" xmlns="http://www.w3.org/2000/svg" xmlns:xlink="http://www.w3.org/1999/xlink" x="0px" y="0px"
	 viewBox="0 0 500 500" width="32" height="32" style="enable-background:new 0 0 500 500;" preserveAspectRatio="xMidYMid meet" xml:space="preserve">
<style type="text/css">
	.st0{fill:none;}
	.st1{fill:#FFFFFF;}
</style>
<rect class="st0" width="500" height="500"/>
<path class="st1" d="M250,126.9l100,40V200v50c0,0.3-0.4,33.4-13.7,65.4C319.6,355.5,291.4,375,250,375c-41,0-69-19.1-85.8-58.5
	C150.4,284.3,150,250.8,150,250v-83L250,126.9 M250,100l-125,50v100c0,0,0,150,125,150s125-150,125-150v-50v-50L250,100L250,100z"/>
<g>
	<rect x="237.5" y="200" class="st1" width="25" height="100"/>
</g>
<g>
	<rect x="200" y="237.5" class="st1" width="100" height="25"/>
</g>
</svg>
