<?xml version="1.0" encoding="utf-8"?>
<!-- Generator: Adobe Illustrator 15.1.0, SVG Export Plug-In . SVG Version: 6.00 Build 0)  -->
<!DOCTYPE svg PUBLIC "-//W3C//DTD SVG 1.1//EN" "http://www.w3.org/Graphics/SVG/1.1/DTD/svg11.dtd">
<svg version="1.1" id="Layer_1" xmlns="http://www.w3.org/2000/svg" xmlns:xlink="http://www.w3.org/1999/xlink" x="0px" y="0px"
	 viewBox="0 0 500 500" width="32" height="32" enable-background="new 0 0 500 500" xml:space="preserve">
<rect fill="none" width="500" height="500"/>
<path fill="#FFFFFF" d="M315.153,284.265c-5.946,3.25-18.623,12.608-11.782,30.834l-117.027,43.925c0,0-8.785-23.405-32.19-14.62
	l-13.179-35.108c0,0,23.406-8.785,14.621-32.19l0.367-0.138l-8.785-23.405L100,271.27L148.317,400l210.65-79.066l-17.475-46.556
	L315.153,284.265z"/>
<path fill="#FFFFFF" d="M141.032,179.066l48.317,128.731L400,228.731L351.682,100L141.032,179.066z M359.024,190.705
	c0,0-23.406,8.785-14.621,32.19L227.376,266.82c0,0-8.785-23.405-32.19-14.62l-13.179-35.108c0,0,23.406-8.785,14.621-32.19
	l117.028-43.925c0,0,8.784,23.405,32.19,14.62L359.024,190.705z"/>
</svg>
