<?xml version="1.0" encoding="utf-8"?>
<svg version="1.1" xmlns="http://www.w3.org/2000/svg" xmlns:xlink="http://www.w3.org/1999/xlink" x="0px" y="0px"
	 viewBox="0 0 500 500" width="32" height="32" style="enable-background:new 0 0 500 500;" preserveAspectRatio="xMidYMid meet" xml:space="preserve">
<style type="text/css">
	.st0{fill:none;}
	.st1{fill:#FFFFFF;}
</style>
<rect class="st0" width="500" height="500"/>
<path class="st1" d="M375,329.2c0,0,0-83.3-83.3-83.3c20.8-41.7,20.8-83.3,20.8-83.3s0-62.5-62.5-62.5s-62.5,62.5-62.5,62.5
	s0,41.7,20.8,83.3c-83.3,0-83.3,83.3-83.3,83.3V350h65.8c-0.8-4-1.3-8.2-1.3-12.5s0.4-8.5,1.3-12.5h-40.4c0.6-5.9,2.5-17,8.1-27.5
	c4.1-7.8,9.6-13.9,16.2-18.2c8.7-5.6,20-8.4,33.7-8.4c8.7,0,16.7-4.5,21.3-11.9c4.6-7.4,5-16.6,1.1-24.3
	c-17.4-34.8-18.2-70.5-18.2-72.2c0-0.5,0.4-10.5,5.2-20c6-12.1,16-17.4,32.3-17.4c20.6,0,28,9.3,31.8,16.4
	c5.2,9.6,5.7,20.1,5.7,21.3c0,2.4-1,37.7-18.2,72c-3.9,7.7-3.5,17,1.1,24.3s12.6,11.9,21.3,11.9c13.7,0,25,2.8,33.7,8.4
	c6.6,4.3,12.1,10.4,16.2,18.2c5.6,10.5,7.4,21.6,8.1,27.5h-40.4c0.8,4,1.3,8.2,1.3,12.5s-0.4,8.5-1.3,12.5H375V329.2z"/>
<path class="st1" d="M311.2,325c-5.8-28.5-31-50-61.2-50s-55.5,21.5-61.2,50c-0.8,4-1.3,8.2-1.3,12.5s0.4,8.5,1.3,12.5
	c5.8,28.5,31,50,61.2,50s55.5-21.5,61.2-50c0.8-4,1.3-8.2,1.3-12.5S312.1,329,311.2,325z M250,375c-16.3,0-30.2-10.5-35.3-25
	c-1.4-3.9-2.2-8.1-2.2-12.5s0.8-8.6,2.2-12.5c5.2-14.5,19.1-25,35.3-25s30.2,10.5,35.3,25c1.4,3.9,2.2,8.1,2.2,12.5
	s-0.8,8.6-2.2,12.5C280.2,364.5,266.3,375,250,375z"/>
</svg>
