<?xml version="1.0" encoding="utf-8"?>
<!-- Generator: Adobe Illustrator 15.1.0, SVG Export Plug-In . SVG Version: 6.00 Build 0)  -->
<!DOCTYPE svg PUBLIC "-//W3C//DTD SVG 1.1//EN" "http://www.w3.org/Graphics/SVG/1.1/DTD/svg11.dtd">
<svg version="1.1" id="Layer_2" xmlns="http://www.w3.org/2000/svg" xmlns:xlink="http://www.w3.org/1999/xlink" x="0px" y="0px"
	 width="32" height="32" viewBox="0 0 500 500" enable-background="new 0 0 500 500" xml:space="preserve">
<g>
	<rect fill="none" width="500" height="500"/>
	<path fill="#FFFFFF" d="M175,187.5c41.502,0,63.064,9.527,64.062,9.98c4.136,2.022,32.803,15.02,85.938,15.02
		c18.884,0,36.124-2.277,50-5.005v99.523c-10.672,2.649-27.372,5.481-50,5.481c-41.502,0-63.064-9.527-64.062-9.98
		c-4.136-2.021-32.803-15.02-85.938-15.02c-18.948,0-36.16,2.262-50,4.978v-99.496C135.672,190.333,152.372,187.5,175,187.5
		 M175,162.5c-50,0-75,12.5-75,12.5v150c0,0,32.667-12.5,75-12.5c50,0,75,12.5,75,12.5s25,12.5,75,12.5s75-12.5,75-12.5V175
		c0,0-33,12.5-75,12.5c-50,0-75-12.5-75-12.5S225,162.5,175,162.5L175,162.5z"/>
	<path fill="#FFFFFF" d="M256.104,223.833c-31.298-6.227-59.402,0.444-62.772,14.895c-3.37,14.452,19.27,31.216,50.565,37.441
		c31.295,6.225,59.401-0.443,62.77-14.897C310.038,246.82,287.397,230.057,256.104,223.833z M259.869,246.315
		c-0.173-1.105-0.51-2.062-1.014-2.871c-0.504-0.807-1.107-1.493-1.807-2.056c-0.702-0.561-1.458-1.013-2.268-1.353
		c-0.813-0.34-1.609-0.595-2.395-0.764c-1.926-0.417-3.63-0.332-5.112,0.252c-1.485,0.584-2.739,1.443-3.765,2.579l10.607,2.292
		l-3.63,5.384l-9.842-2.126c-0.136,0.629-0.235,1.132-0.295,1.51c-0.063,0.377-0.106,0.728-0.134,1.05l10.429,2.253l-3.63,5.384
		l-5.479-1.184c0.613,1.16,1.426,2.148,2.444,2.965c1.015,0.814,2.269,1.384,3.763,1.707c0.786,0.17,1.61,0.256,2.473,0.257
		c0.863,0.001,1.724-0.122,2.578-0.368c0.856-0.246,1.657-0.63,2.406-1.146c0.748-0.517,1.401-1.209,1.96-2.075l8.161,7.623
		c-0.96,1.396-2.211,2.565-3.75,3.507c-1.542,0.942-3.216,1.65-5.022,2.123c-1.81,0.473-3.694,0.724-5.653,0.752
		c-1.96,0.028-3.824-0.147-5.592-0.529c-2.279-0.492-4.355-1.301-6.229-2.426c-1.876-1.123-3.505-2.474-4.892-4.048
		c-1.388-1.574-2.535-3.313-3.439-5.215c-0.906-1.901-1.531-3.856-1.879-5.864l-5.715-1.234l3.63-5.385l1.768,0.382
		c0.046-0.401,0.102-0.8,0.167-1.198c0.065-0.397,0.153-0.851,0.264-1.361l-4.008-0.866l3.63-5.384l2.593,0.56
		c1.052-1.828,2.371-3.506,3.957-5.035c1.584-1.528,3.387-2.784,5.409-3.766c2.021-0.982,4.227-1.625,6.616-1.932
		c2.389-0.306,4.94-0.167,7.651,0.419c4.046,0.874,7.372,2.467,9.979,4.777c2.604,2.311,4.336,4.999,5.195,8.061L259.869,246.315z"
		/>
</g>
</svg>
