<?xml version="1.0" encoding="utf-8"?>
<svg version="1.1" xmlns="http://www.w3.org/2000/svg" xmlns:xlink="http://www.w3.org/1999/xlink" x="0px" y="0px"
	 viewBox="0 0 500 500" width="32" height="32" style="enable-background:new 0 0 500 500;" preserveAspectRatio="xMidYMid meet" xml:space="preserve">
<style type="text/css">
	.st0{fill:none;}
	.st1{fill:#FFFFFF;}
</style>
<rect class="st0" width="500" height="500"/>
<g>
	<rect x="125" y="375" class="st1" width="250" height="25"/>
</g>
<path class="st1" d="M187.5,125c20.7,0,37.5,16.8,37.5,37.5S208.2,200,187.5,200S150,183.2,150,162.5S166.8,125,187.5,125
	 M187.5,100c-34.5,0-62.5,28-62.5,62.5s28,62.5,62.5,62.5s62.5-28,62.5-62.5S222,100,187.5,100L187.5,100z"/>
<path class="st1" d="M312.5,225c20.7,0,37.5,16.8,37.5,37.5S333.2,300,312.5,300S275,283.2,275,262.5S291.8,225,312.5,225
	 M312.5,200c-34.5,0-62.5,28-62.5,62.5s28,62.5,62.5,62.5c34.5,0,62.5-28,62.5-62.5S347,200,312.5,200L312.5,200z"/>
</svg>
