<?xml version="1.0" encoding="utf-8"?>
<!-- Generator: Adobe Illustrator 15.1.0, SVG Export Plug-In . SVG Version: 6.00 Build 0)  -->
<!DOCTYPE svg PUBLIC "-//W3C//DTD SVG 1.1//EN" "http://www.w3.org/Graphics/SVG/1.1/DTD/svg11.dtd">
<svg version="1.1" id="Layer_1" xmlns="http://www.w3.org/2000/svg" xmlns:xlink="http://www.w3.org/1999/xlink" x="0px" y="0px"
	 viewBox="0 0 32 32" width="32" height="32" enable-background="new 0 0 32 32" preserveAspectRatio="xMidYMid meet" xml:space="preserve">
<rect fill="none" width="32" height="32"/>
<path fill="#FFFFFF" d="M25.51,15.2v1.601c0,0,1.69-0.064,1.69-0.801C25.6,16,25.51,15.2,25.51,15.2L25.51,15.2z"/>
<path fill="#FFFFFF" d="M17.6,9.6c-0.819,0-1.56,0.053-2.229,0.145C14.608,8.193,13.366,8,12.8,8c-0.883,0-1.6,0.716-1.6,1.6v1.6
	C10,12,9.6,12.8,9.6,12.8H8c0,0-1.6,0-1.6,1.6s0,3.2,0,3.2S6.4,19.2,8,19.2s1.6,0,1.6,0s0.4,0.8,1.6,1.6v2.4
	c0,0.884,0.716,1.6,1.6,1.6h1.6c0.884,0,1.6-0.716,1.6-1.6v-0.872c0.497,0.046,1.029,0.072,1.6,0.072v0.8
	c0,0.884,0.717,1.6,1.601,1.6h1.6c0.884,0,1.601-0.716,1.601-1.6v-1.897C25.6,19.474,25.6,16,25.6,16S25.6,9.6,17.6,9.6z
	 M23.243,18.352c-0.234,0.375-0.516,0.706-0.843,0.995c-0.448,0.396-0.981,0.711-1.601,0.945v1.687V23.2h-1.6v-0.896v-1.612
	C18.703,20.764,18.17,20.8,17.6,20.8c-0.581,0-1.113-0.029-1.6-0.08c-0.601-0.063-1.132-0.16-1.6-0.277v1.644V23.2h-1.6v-1.584
	v-1.742c-0.193-0.094-0.365-0.188-0.516-0.28c-0.503-0.306-0.829-0.607-1.025-0.825c-0.135-0.149-0.21-0.26-0.236-0.303
	c-0.257-0.572-0.795-0.866-1.426-0.866H9.575H9.4H8.005C8.003,17.588,8.001,17.576,8,17.565v-3.16
	c0.012-0.002,0.024-0.004,0.035-0.006H9.6c0.63,0,1.166-0.293,1.423-0.866c0.022-0.036,0.079-0.12,0.177-0.235
	c0.187-0.22,0.526-0.553,1.084-0.893c0.15-0.092,0.322-0.186,0.516-0.28v-1.743V9.6c0.393,0,0.688,0.192,0.912,0.483
	c0.307,0.398,0.477,0.981,0.571,1.505c0.459-0.121,0.981-0.222,1.573-0.291c0.525-0.061,1.105-0.097,1.744-0.097
	c2.672,0,4.549,0.789,5.578,2.346c0.757,1.145,0.818,2.35,0.822,2.459C23.997,16.099,23.94,17.236,23.243,18.352z"/>
<circle fill="#FFFFFF" cx="12.8" cy="14.4" r="0.8"/>
<path fill="#FFFFFF" d="M20.654,14.847c-1.83-1.235-4.327-0.556-4.352-0.549l-0.438-1.539c0.131-0.038,3.228-0.896,5.684,0.763
	L20.654,14.847z"/>
</svg>
